<?xml version="1.0" encoding="UTF-8"?>
<svg width="16px" height="20px" viewBox="0 0 16 20" version="1.1" xmlns="http://www.w3.org/2000/svg" xmlns:xlink="http://www.w3.org/1999/xlink">
    <!-- Generator: Sketch 49.3 (51167) - http://www.bohemiancoding.com/sketch -->
    <title>Combined Shape</title>
    <desc>Created with Sketch.</desc>
    <defs></defs>
    <g id="Page-1" stroke="none" stroke-width="1" fill="none" fill-rule="evenodd">
        <g id="00.Azerpoct" transform="translate(-1491.000000, -3738.000000)" fill="#FFD400" fill-rule="nonzero">
            <path d="M1499,3738 C1494.6,3738 1491,3741.59551 1491,3745.99001 C1491,3751.38327 1498,3757.47566 1498.3,3757.77528 C1498.7,3758.07491 1499.2,3758.07491 1499.6,3757.77528 C1500,3757.47566 1507,3751.38327 1507,3745.99001 C1507,3741.59551 1503.4,3738 1499,3738 Z M1499,3755.6779 C1496.9,3753.6804 1493,3749.38577 1493,3745.99001 C1493,3742.69413 1495.7,3739.9975 1499,3739.9975 C1502.3,3739.9975 1505,3742.69413 1505,3745.99001 C1505,3749.28589 1501.1,3753.6804 1499,3755.6779 Z M1501.4,3744.49189 C1501.3,3744.19226 1501.1,3743.89263 1500.7,3743.79276 L1496.5,3742.49438 C1495.8,3742.29463 1495,3742.99376 1495.3,3743.79276 L1496.6,3747.98752 C1496.7,3748.28714 1496.9,3748.58677 1497.3,3748.68664 L1501.5,3749.98502 C1502.3,3750.18477 1503,3749.48564 1502.8,3748.68664 L1501.4,3744.49189 Z M1498.3,3746.88889 L1497.7,3744.99126 L1499.6,3745.59051 L1500.2,3747.48814 L1498.3,3746.88889 Z" id="Combined-Shape"></path>
        </g>
    </g>
</svg>