<?xml version="1.0" encoding="UTF-8"?>
<svg width="18px" height="18px" viewBox="0 0 18 18" version="1.1" xmlns="http://www.w3.org/2000/svg" xmlns:xlink="http://www.w3.org/1999/xlink">
    <!-- Generator: Sketch 49.3 (51167) - http://www.bohemiancoding.com/sketch -->
    <title>Group 5</title>
    <desc>Created with Sketch.</desc>
    <defs></defs>
    <g id="Page-1" stroke="none" stroke-width="1" fill="none" fill-rule="evenodd">
        <g id="01.Contact-us" transform="translate(-1741.000000, -42.000000)" fill="#FFD400" fill-rule="nonzero">
            <g id="Group-5" transform="translate(1741.000000, 42.000000)">
                <path d="M17.3905352,12.0804323 L14.5012207,9.20627738 C13.5983099,8.30810398 12.1536526,8.30810398 11.3410329,9.20627738 L9.89637563,10.6433548 C9.80608455,10.7331722 8.99346483,10.6433548 8.18084512,9.83499876 C7.3682254,9.0266427 7.27793432,8.21828664 7.3682254,8.1284693 L8.90317375,6.60157451 C9.80608455,5.70340111 9.80608455,4.26632367 8.90317375,3.4579676 L5.92356813,0.673630052 C5.02065734,-0.224543351 3.57600007,-0.224543351 2.76338035,0.673630052 L1.04784985,2.38015952 C-1.29971822,4.71541037 0.50610337,9.74518142 4.38861978,13.6073271 C6.28473245,15.4934912 8.45171836,16.8407513 10.4381221,17.55929 C12.2439437,18.1880114 14.3206385,18.2778288 15.6750047,16.9305686 L17.3905352,15.2240392 C18.2031549,14.4156831 18.2031549,12.9786057 17.3905352,12.0804323 Z M16.1264601,13.9665964 L14.4109296,15.6731259 C13.1468545,16.9305686 9.26433807,15.8527606 5.65269489,12.3498843 C2.1313428,8.93682536 0.957558767,4.98486239 2.31192496,3.63760228 L4.02745547,1.93107282 C4.20803762,1.84125548 4.47891086,1.84125548 4.65949302,1.93107282 L7.54880756,4.80522771 C7.72938972,4.98486239 7.72938972,5.25431441 7.54880756,5.43394909 L6.01385921,6.96084387 C5.02065734,7.85901728 5.38182166,9.74518142 6.82647893,11.1822589 C8.2711362,12.6193363 10.0769578,12.9786057 11.0701597,11.9906149 L12.605108,10.4637201 C12.7856902,10.2840855 13.0565634,10.2840855 13.2371456,10.4637201 L16.1264601,13.337875 C16.2167512,13.5175097 16.3070423,13.7869617 16.1264601,13.9665964 Z" id="Shape"></path>
            </g>
        </g>
    </g>
</svg>