<svg id="Capa_1" data-name="Capa 1" xmlns="http://www.w3.org/2000/svg" viewBox="0 0 29 28.17"><defs><style>.cls-1{fill:#fff;}</style></defs><title>callcenter1</title><path class="cls-1" d="M13.54,22.82a1.49,1.49,0,1,1-1.49-1.47A1.48,1.48,0,0,1,13.54,22.82Zm6-1.47a1.47,1.47,0,1,0,1.49,1.47A1.48,1.48,0,0,0,19.59,21.35ZM30.32,22v2.8a2.56,2.56,0,0,1-2.57,2.55H25.88c-1.85,5.08-6.57,8.15-10.06,8.15S7.61,32.42,5.76,27.34H3.89A2.56,2.56,0,0,1,1.32,24.8V22a2.54,2.54,0,0,1,1.35-2.24c0-4,1.2-7.08,3.49-9.23s5.52-3.21,9.67-3.21,7.4,1.08,9.67,3.21,3.46,5.25,3.49,9.23A2.54,2.54,0,0,1,30.32,22Zm-5.44.83c0-.65,0-1.27-0.08-1.87A10.72,10.72,0,0,0,19,18.85a3.74,3.74,0,0,1,.82,1.55c-1.6-1.25-4.75-1-7.13-3.75-0.14-.16-0.25-0.31-0.36-0.44h0c-0.42-.57-0.57-0.9-0.58-0.53a6.14,6.14,0,0,1-4.93,6.07c0,0.35,0,.71,0,1.08a11.41,11.41,0,0,0,.61,3.71c1.44,1.71,3.81,2.2,5.9,2.32a2.69,2.69,0,0,1,2.28-1c1.38,0,2.5.79,2.5,1.75s-1.12,1.75-2.5,1.75a2.63,2.63,0,0,1-2.33-1.12,12.41,12.41,0,0,1-4.51-1c2,2.95,5.15,4.5,7.11,4.5C18.89,33.71,24.88,29.87,24.88,22.83Zm2.55-3.38c-0.16-6.94-4.17-10.6-11.6-10.6S4.38,12.52,4.22,19.45h1a12.15,12.15,0,0,1,2.29-5.74c1.85-2.36,4.65-3.55,8.32-3.55s6.47,1.19,8.32,3.55a12.15,12.15,0,0,1,2.29,5.74h1Z" transform="translate(-1.32 -7.33)"/></svg>