<?xml version="1.0" encoding="UTF-8"?>
<svg width="26px" height="26px" viewBox="0 0 26 26" version="1.1" xmlns="http://www.w3.org/2000/svg" xmlns:xlink="http://www.w3.org/1999/xlink">
    <!-- Generator: Sketch 49.3 (51167) - http://www.bohemiancoding.com/sketch -->
    <title>Combined Shape</title>
    <desc>Created with Sketch.</desc>
    <defs></defs>
    <g id="Page-1" stroke="none" stroke-width="1" fill="none" fill-rule="evenodd">
        <g id="00.Azerpoct" transform="translate(-1417.000000, -1293.000000)" fill="#017ACA" fill-rule="nonzero">
            <path d="M1434.30449,1309.07035 C1433.26622,1308.02513 1431.57903,1308.02513 1430.67055,1309.07035 L1429.63228,1310.11558 C1429.37271,1310.37688 1428.20466,1310.11558 1427.03661,1309.07035 C1425.86855,1307.89447 1425.73877,1306.71859 1425.99834,1306.45729 L1427.03661,1305.41206 C1428.07488,1304.36683 1428.07488,1302.79899 1427.03661,1301.75377 L1423.27288,1297.96482 C1422.36439,1297.05025 1420.6772,1297.05025 1419.63894,1297.96482 L1418.47088,1299.1407 C1415.48586,1302.14573 1417.17304,1308.54774 1422.36439,1313.64322 C1425.60899,1316.90955 1429.76206,1319 1432.87687,1319 C1434.43428,1319 1435.8619,1318.47739 1436.77038,1317.56281 L1437.93844,1316.38693 C1438.97671,1315.34171 1438.97671,1313.77387 1437.93844,1312.72864 L1434.30449,1309.07035 Z M1434.95341,1315.86432 C1434.56406,1316.25628 1433.91514,1316.51759 1433.00666,1316.51759 C1430.54077,1316.51759 1427.03661,1314.68844 1424.31115,1311.94472 C1420.02829,1307.63317 1418.73045,1302.66834 1420.41764,1301.1005 L1421.58569,1299.92462 L1425.21963,1303.58291 L1424.05158,1304.62814 C1422.62396,1306.06533 1423.14309,1308.80905 1425.08985,1310.8995 C1427.03661,1312.8593 1429.89185,1313.38191 1431.31947,1311.94472 L1432.35774,1310.8995 L1435.99168,1314.55779 L1434.95341,1315.86432 Z M1428.72379,1293 C1436.6406,1293 1443,1299.40201 1443,1307.37186 L1440.40433,1307.37186 C1440.40433,1300.8392 1435.21298,1295.61307 1428.72379,1295.61307 L1428.72379,1293 Z M1435.21298,1307.37186 C1435.21298,1303.71357 1432.35774,1300.8392 1428.72379,1300.8392 L1428.72379,1298.22613 C1433.78536,1298.22613 1437.80865,1302.27638 1437.80865,1307.37186 L1435.21298,1307.37186 Z" id="Combined-Shape"></path>
        </g>
    </g>
</svg>