<?xml version="1.0" encoding="UTF-8"?>
<svg width="18px" height="27px" viewBox="0 0 18 27" version="1.1" xmlns="http://www.w3.org/2000/svg" xmlns:xlink="http://www.w3.org/1999/xlink">
    <!-- Generator: Sketch 49.3 (51167) - http://www.bohemiancoding.com/sketch -->
    <title>Combined Shape</title>
    <desc>Created with Sketch.</desc>
    <defs></defs>
    <g id="Page-1" stroke="none" stroke-width="1" fill="none" fill-rule="evenodd">
        <g id="00.Azerpoct" transform="translate(-1561.000000, -1292.000000)" fill="#017ACA" fill-rule="nonzero">
            <path d="M1570.0288,1292 C1565.15873,1292 1561.95473,1295.915 1561.18577,1299.56 C1560.54497,1302.935 1561.57025,1306.31 1564.13345,1308.605 C1565.41505,1309.82 1566.18401,1311.305 1566.18401,1312.925 L1566.18401,1314.95 L1573.8736,1314.95 L1573.8736,1312.925 C1573.8736,1311.305 1574.5144,1309.82 1575.796,1308.74 C1577.84656,1306.85 1579,1304.285 1579,1301.45 C1579,1296.185 1575.02704,1292 1570.0288,1292 Z M1574.12992,1306.58 C1572.46384,1307.93 1571.56672,1309.955 1571.3104,1312.25 L1568.7472,1312.25 C1568.61904,1310.09 1567.59376,1308.065 1565.79953,1306.58 C1564.00529,1304.96 1563.23633,1302.53 1563.74897,1300.1 C1564.26161,1297.535 1566.69665,1294.7 1570.0288,1294.7 C1573.61728,1294.7 1576.4368,1297.67 1576.4368,1301.45 C1576.4368,1303.475 1575.53968,1305.365 1574.12992,1306.58 Z M1567.46561,1316.3 L1572.592,1316.3 L1572.592,1319 L1567.46561,1319 L1567.46561,1316.3 Z" id="Combined-Shape"></path>
        </g>
    </g>
</svg>