<?xml version="1.0" encoding="UTF-8"?>
<svg width="27px" height="27px" viewBox="0 0 27 27" version="1.1" xmlns="http://www.w3.org/2000/svg" xmlns:xlink="http://www.w3.org/1999/xlink">
    <!-- Generator: Sketch 49.3 (51167) - http://www.bohemiancoding.com/sketch -->
    <title>Combined Shape</title>
    <desc>Created with Sketch.</desc>
    <defs></defs>
    <g id="Page-1" stroke="none" stroke-width="1" fill="none" fill-rule="evenodd">
        <g id="00.Azerpoct" transform="translate(-1417.000000, -1424.000000)" fill="#017ACA" fill-rule="nonzero">
            <path d="M1442.6056,1448.29323 C1443.41311,1448.29323 1443.95146,1448.83459 1443.95146,1449.64662 C1443.95146,1450.45865 1443.41311,1451 1442.6056,1451 L1418.38016,1451 C1417.57264,1451 1417.0343,1450.45865 1417.0343,1449.64662 C1417.0343,1448.83459 1417.57264,1448.29323 1418.38016,1448.29323 L1442.6056,1448.29323 Z M1418.38016,1434.7594 C1417.70723,1434.7594 1417.30347,1434.35338 1417.0343,1433.81203 C1416.89971,1433.13534 1417.16888,1432.59398 1417.70723,1432.32331 L1429.81995,1424.20301 C1430.22371,1423.93233 1430.89663,1423.93233 1431.30039,1424.20301 L1443.41311,1432.32331 C1443.95146,1432.59398 1444.08604,1433.27068 1443.95146,1433.81203 C1443.68229,1434.35338 1443.14394,1434.7594 1442.6056,1434.7594 L1438.56803,1434.7594 L1438.56803,1444.23308 L1439.91388,1444.23308 C1440.7214,1444.23308 1441.25974,1444.77444 1441.25974,1445.58647 C1441.25974,1446.3985 1440.7214,1446.93985 1439.91388,1446.93985 L1421.07187,1446.93985 C1420.26436,1446.93985 1419.72601,1446.3985 1419.72601,1445.58647 C1419.72601,1444.77444 1420.26436,1444.23308 1421.07187,1444.23308 L1422.41773,1444.23308 L1422.41773,1434.7594 L1418.38016,1434.7594 Z M1425.10945,1434.7594 L1425.10945,1444.23308 L1429.14702,1444.23308 L1429.14702,1434.7594 L1425.10945,1434.7594 Z M1435.87631,1444.23308 L1435.87631,1434.7594 L1431.83874,1434.7594 L1431.83874,1444.23308 L1435.87631,1444.23308 Z M1430.49288,1426.90977 L1422.82149,1432.05263 L1438.16427,1432.05263 L1430.49288,1426.90977 Z" id="Combined-Shape"></path>
        </g>
    </g>
</svg>