<?xml version="1.0" encoding="UTF-8"?>
<svg width="26px" height="26px" viewBox="0 0 26 26" version="1.1" xmlns="http://www.w3.org/2000/svg" xmlns:xlink="http://www.w3.org/1999/xlink">
    <!-- Generator: Sketch 49.3 (51167) - http://www.bohemiancoding.com/sketch -->
    <title>Combined Shape</title>
    <desc>Created with Sketch.</desc>
    <defs></defs>
    <g id="Page-1" stroke="none" stroke-width="1" fill="none" fill-rule="evenodd">
        <g id="00.Azerpoct" transform="translate(-1557.000000, -1423.000000)" fill="#017ACA" fill-rule="nonzero">
            <path d="M1572.08,1437.56 C1572.47,1437.17 1572.6,1436.52 1572.6,1436 C1572.6,1434.57 1571.43,1433.4 1570,1433.4 C1568.57,1433.4 1567.4,1434.57 1567.4,1436 C1567.4,1436.65 1567.66,1437.17 1567.92,1437.56 L1564.28,1446.4 L1560.9,1446.4 L1560.9,1449 L1579.1,1449 L1579.1,1446.4 L1575.72,1446.4 L1572.08,1437.56 Z M1570,1439.38 L1572.86,1446.4 L1567.14,1446.4 L1570,1439.38 Z M1570,1423 C1577.15,1423 1583,1428.85 1583,1436 L1580.4,1436 C1580.4,1430.28 1575.72,1425.6 1570,1425.6 C1564.28,1425.6 1559.6,1430.28 1559.6,1436 L1557,1436 C1557,1428.85 1562.85,1423 1570,1423 Z M1570,1430.8 C1567.14,1430.8 1564.8,1433.14 1564.8,1436 L1562.2,1436 C1562.2,1431.71 1565.71,1428.2 1570,1428.2 C1574.29,1428.2 1577.8,1431.71 1577.8,1436 L1575.2,1436 C1575.2,1433.14 1572.86,1430.8 1570,1430.8 Z" id="Combined-Shape"></path>
        </g>
    </g>
</svg>