<?xml version="1.0" encoding="UTF-8"?>
<svg width="26px" height="19px" viewBox="0 0 26 19" version="1.1" xmlns="http://www.w3.org/2000/svg" xmlns:xlink="http://www.w3.org/1999/xlink">
    <!-- Generator: Sketch 49.3 (51167) - http://www.bohemiancoding.com/sketch -->
    <title>m</title>
    <desc>Created with Sketch.</desc>
    <defs></defs>
    <g id="Page-1" stroke="none" stroke-width="1" fill="none" fill-rule="evenodd">
        <g id="00.Azerpoct" transform="translate(-758.000000, -1566.000000)" fill="#0066AA">
            <path d="M772.625977,1569.65039 C775.653335,1570.07357 778.184235,1571.42447 780.21875,1573.70312 C782.253265,1575.99806 783.270508,1578.6673 783.270508,1581.71094 C783.270508,1582.57357 783.18099,1583.41992 783.001953,1584.25 L779.632812,1584.25 C779.876954,1583.41992 779.999023,1582.57357 779.999023,1581.71094 C779.999023,1579.54621 779.299161,1577.6338 777.899414,1575.97363 C776.499667,1574.32974 774.741873,1573.30436 772.625977,1572.89746 L772.625977,1581.36914 L769.28125,1583.0293 L769.28125,1572.87305 C767.116526,1573.2474 765.318041,1574.2565 763.885742,1575.90039 C762.437167,1577.57683 761.712891,1579.51366 761.712891,1581.71094 C761.712891,1582.57357 761.83496,1583.41992 762.079102,1584.25 L758.709961,1584.25 C758.530924,1583.41992 758.441406,1582.57357 758.441406,1581.71094 C758.441406,1578.63475 759.483062,1575.94109 761.566406,1573.62988 C763.633474,1571.35123 766.205063,1570.0166 769.28125,1569.62598 L769.28125,1568.1123 L772.625977,1566.45215 L772.625977,1569.65039 Z" id="m"></path>
        </g>
    </g>
</svg>