<?xml version="1.0" encoding="UTF-8"?>
<svg width="16px" height="20px" viewBox="0 0 16 20" version="1.1" xmlns="http://www.w3.org/2000/svg" xmlns:xlink="http://www.w3.org/1999/xlink">
    <!-- Generator: Sketch 49.3 (51167) - http://www.bohemiancoding.com/sketch -->
    <title>Combined Shape</title>
    <desc>Created with Sketch.</desc>
    <defs></defs>
    <g id="Page-1" stroke="none" stroke-width="1" fill="none" fill-rule="evenodd">
        <g id="00.Azerpoct" transform="translate(-1244.000000, -1432.000000)" fill="#034C7D" fill-rule="nonzero">
            <path d="M1258,1432 L1246,1432 C1244.9,1432 1244,1432.9 1244,1434 L1244,1450 C1244,1451.1 1244.9,1452 1246,1452 L1258,1452 C1259.1,1452 1260,1451.1 1260,1450 L1260,1434 C1260,1432.9 1259.1,1432 1258,1432 Z M1258,1434 L1258,1438 L1246,1438 L1246,1434 L1258,1434 Z M1246,1450 L1246,1440 L1258,1440 L1258,1450 L1246,1450 Z M1248.4,1441.1 C1247.8,1440.8 1247,1441.2 1247,1442 C1247,1442.5 1247.4,1443 1248,1443 C1248.6,1443 1249,1442.5 1249,1442 C1249,1441.6 1248.7,1441.2 1248.4,1441.1 Z M1248.7,1444.3 C1248.1,1443.7 1247,1444.1 1247,1445 C1247,1445.5 1247.4,1446 1248,1446 C1248.9,1446 1249.3,1444.9 1248.7,1444.3 Z M1247,1448 C1247,1448.6 1247.5,1449 1248,1449 C1248.6,1449 1249,1448.5 1249,1448 C1249,1447.7 1248.9,1447.5 1248.7,1447.3 C1248.1,1446.7 1247,1447.1 1247,1448 Z M1252.7,1441.3 C1252.2,1440.8 1251.3,1441 1251.1,1441.6 C1250.8,1442.3 1251.3,1443 1252,1443 C1252.6,1443 1253,1442.5 1253,1442 C1253,1441.8 1252.9,1441.5 1252.7,1441.3 Z M1251,1445 C1251,1445.6 1251.4,1446 1252,1446 C1252.6,1446 1253,1445.5 1253,1445 C1253,1443.7 1251,1443.7 1251,1445 Z M1252.2,1447 C1251.6,1446.9 1251,1447.3 1251,1448 C1251,1448.6 1251.5,1449 1252,1449 C1252.5,1449 1253,1448.6 1253,1448 C1253,1447.6 1252.8,1447.2 1252.2,1447 Z M1256,1443 C1256.9,1443 1257.3,1441.9 1256.7,1441.3 C1256.1,1440.7 1255,1441.1 1255,1442 C1255,1442.5 1255.4,1443 1256,1443 Z M1256,1446 C1256.6,1446 1257,1445.5 1257,1445 C1257,1444.3 1256.3,1443.8 1255.6,1444.1 C1255.3,1444.2 1255,1444.5 1255,1445 C1255,1445.6 1255.4,1446 1256,1446 Z M1255,1448 C1255,1448.6 1255.4,1449 1256,1449 C1256.6,1449 1257,1448.5 1257,1448 C1257,1447.7 1256.9,1447.5 1256.7,1447.3 C1256.1,1446.7 1255,1447.1 1255,1448 Z" id="Combined-Shape"></path>
        </g>
    </g>
</svg>