<?xml version="1.0" encoding="UTF-8"?>
<svg width="20px" height="20px" viewBox="0 0 20 20" version="1.1" xmlns="http://www.w3.org/2000/svg" xmlns:xlink="http://www.w3.org/1999/xlink">
    <!-- Generator: Sketch 49.3 (51167) - http://www.bohemiancoding.com/sketch -->
    <title>euro</title>
    <desc>Created with Sketch.</desc>
    <defs></defs>
    <g id="Page-1" stroke="none" stroke-width="1" fill="none" fill-rule="evenodd">
        <g id="00.Azerpoct" transform="translate(-280.000000, -1262.000000)" fill="#B3C0CE" fill-rule="nonzero">
            <g id="euro" transform="translate(280.000000, 1262.000000)">
                <path d="M10,0 C15.5,0 20,4.5 20,10 C20,15.5 15.5,20 10,20 C4.5,20 0,15.5 0,10 C0,4.5 4.5,0 10,0 Z M10.1,6 C9.2,6 8.4,6.5 8,7.3 L9,7.3 C9.6,7.3 10,7.7 10,8.3 C10,8.9 9.6,9.3 9,9.3 L7.8,9.3 L7.8,10.6 L9,10.6 C9.6,10.6 10,11 10,11.6 C10,12.2 9.6,12.6 9,12.6 L8,12.6 C8.4,13.4 9.2,13.9 10.1,13.9 C10.9,13.9 11.7,13.4 12.1,12.7 C12.4,12.2 13,12 13.5,12.3 C14,12.6 14.2,13.2 13.9,13.7 C13.1,15.1 11.6,15.9 10.1,15.9 C8.1,15.9 6.4,14.5 5.9,12.6 L5,12.6 C4.4,12.6 4,12.2 4,11.6 C4,11 4.4,10.6 5,10.6 L5.8,10.6 L5.8,9.3 L5,9.3 C4.4,9.3 4,8.9 4,8.3 C4,7.7 4.4,7.3 5,7.3 L5.9,7.3 C6.3,5.4 8.1,4 10.1,4 C11.7,4 13.1,4.8 13.9,6.2 C14.1,6.7 14,7.3 13.5,7.6 C13,7.8 12.4,7.7 12.1,7.2 C11.7,6.4 10.9,6 10.1,6 Z M10,18 C14.4,18 18,14.4 18,10 C18,5.6 14.4,2 10,2 C5.6,2 2,5.6 2,10 C2,14.4 5.6,18 10,18 Z" id="Combined-Shape"></path>
            </g>
        </g>
    </g>
</svg>