<?xml version="1.0" encoding="UTF-8"?>
<svg width="20px" height="20px" viewBox="0 0 20 20" version="1.1" xmlns="http://www.w3.org/2000/svg" xmlns:xlink="http://www.w3.org/1999/xlink">
    <!-- Generator: Sketch 49.3 (51167) - http://www.bohemiancoding.com/sketch -->
    <title>Group 15</title>
    <desc>Created with Sketch.</desc>
    <defs></defs>
    <g id="Page-1" stroke="none" stroke-width="1" fill="none" fill-rule="evenodd">
        <g id="00.Azerpoct" transform="translate(-280.000000, -1322.000000)" fill="#B3C0CE" fill-rule="nonzero">
            <g id="Group-15" transform="translate(280.000000, 1322.000000)">
                <path d="M10,0 C15.5,0 20,4.5 20,10 C20,15.5 15.5,20 10,20 C4.5,20 0,15.5 0,10 C0,4.5 4.5,0 10,0 Z M11,7 C10.5,7 10,7.4 10,8 L10,9.5 L11,9.5 C11.6,9.5 12,9.9 12,10.5 C12,11.1 11.6,11.5 11,11.5 L10,11.5 C10,11.6 10,12 10,12.1 C10,12.4 9.9,12.7 9.8,13 L13,13 C13.6,13 14,13.4 14,14 C14,14.6 13.6,15 13,15 L7,15 C6.4,15 6,14.6 6,14 C6,13.4 6.4,13 7,13 C7.6,13 8,12.6 8,12 C8,12 8,12 8,11.5 L7,11.5 C6.4,11.5 6,11.1 6,10.5 C6,9.9 6.4,9.5 7,9.5 L8,9.5 L8,8 C8,6.3 9.3,5 11,5 C12.7,5 14,6.3 14,8 C14,8.6 13.6,9 13,9 C12.4,9 12,8.6 12,8 C12,7.4 11.6,7 11,7 Z M10,18 C14.4,18 18,14.4 18,10 C18,5.6 14.4,2 10,2 C5.6,2 2,5.6 2,10 C2,14.4 5.6,18 10,18 Z" id="Combined-Shape"></path>
            </g>
        </g>
    </g>
</svg>