<?xml version="1.0" encoding="UTF-8"?>
<svg width="16px" height="20px" viewBox="0 0 16 20" version="1.1" xmlns="http://www.w3.org/2000/svg" xmlns:xlink="http://www.w3.org/1999/xlink">
    <!-- Generator: Sketch 49.3 (51167) - http://www.bohemiancoding.com/sketch -->
    <title>Combined Shape</title>
    <desc>Created with Sketch.</desc>
    <defs></defs>
    <g id="Page-1" stroke="none" stroke-width="1" fill="none" fill-rule="evenodd">
        <g id="00.Azerpoct" transform="translate(-773.000000, -3738.000000)" fill="#FFD400" fill-rule="nonzero">
            <path d="M788,3738 L774,3738 C773.4,3738 773,3738.4 773,3739 L773,3757 C773,3757.6 773.4,3758 774,3758 L788,3758 C788.6,3758 789,3757.6 789,3757 L789,3739 C789,3738.4 788.6,3738 788,3738 Z M787,3756 L775,3756 L775,3740 L787,3740 L787,3756 Z M778,3745 L784,3745 C784.6,3745 785,3744.6 785,3744 C785,3743.4 784.6,3743 784,3743 L778,3743 C777.4,3743 777,3743.5 777,3744 C777,3744.6 777.4,3745 778,3745 Z M778,3749 L784,3749 C784.6,3749 785,3748.6 785,3748 C785,3747.4 784.6,3747 784,3747 L778,3747 C777.4,3747 777,3747.4 777,3748 C777,3748.6 777.4,3749 778,3749 Z M778,3753 L784,3753 C784.6,3753 785,3752.6 785,3752 C785,3751.4 784.6,3751 784,3751 L778,3751 C777.4,3751 777,3751.4 777,3752 C777,3752.6 777.4,3753 778,3753 Z" id="Combined-Shape"></path>
        </g>
    </g>
</svg>