<svg id="logo" xmlns="http://www.w3.org/2000/svg" viewBox="0 0 210.94 60"><defs><style>.cls-1{fill:#ffffff;}</style></defs><path class="cls-1" d="M52.89,37a2,2,0,0,0-2.51.81L46,36v-.07a1.1,1.1,0,0,0-.4-.89,15.73,15.73,0,0,0-.27-10.73l5.1-2.11a2.12,2.12,0,0,0,2.51.81,2.07,2.07,0,0,0-1.64-3.8A2,2,0,0,0,50,21.5l-5.1,2.11A15.55,15.55,0,0,0,41,18.17a.56.56,0,0,0,.08-.35,1.06,1.06,0,0,0-1.7-.87,19.53,19.53,0,0,0-2.51-1.43l2.1-5a2,2,0,0,0,2.32-1.22A2.18,2.18,0,0,0,40.2,6.54a2.19,2.19,0,0,0-2.73,1.09,2.05,2.05,0,0,0,.82,2.51l-2.11,5a15.69,15.69,0,0,0-10.27-.4A1.63,1.63,0,0,0,24.56,14h-.27l-1.64-3.94a2.12,2.12,0,0,0,.81-2.51,2.07,2.07,0,1,0-3.8,1.63A2,2,0,0,0,22,10.42l1.64,3.94a1.55,1.55,0,0,0-.68,1.3A.54.54,0,0,0,23,16a15.51,15.51,0,0,0-7,7.55l-5-2.11a2,2,0,0,0-1.21-2.31,2.07,2.07,0,1,0-1.64,3.8,2,2,0,0,0,2.51-.81l5,2.11a16.18,16.18,0,0,0-1.09,5.3.82.82,0,0,0-.54.82.89.89,0,0,0,.54.81,17.64,17.64,0,0,0,1,4.55l-5,2.11A2.12,2.12,0,0,0,8.05,37a2.07,2.07,0,1,0,1.64,3.8A2,2,0,0,0,10.9,38.5l5-2.11a14.14,14.14,0,0,0,2.18,3.53,1.31,1.31,0,0,0-.13.55,1.07,1.07,0,0,0,1.08,1.08,1.53,1.53,0,0,0,.48-.14,15.31,15.31,0,0,0,4.56,3l-2.11,5a2,2,0,0,0-2.31,1.22,2.07,2.07,0,0,0,3.8,1.64,2,2,0,0,0-.81-2.51l2.1-5a15.2,15.2,0,0,0,5.72,1.08,16.09,16.09,0,0,0,5.71-1.08l2.11,5.1a2.12,2.12,0,0,0-.82,2.51,2.07,2.07,0,0,0,3.81-1.64A2,2,0,0,0,39,49.5l-2.1-5.09A15.94,15.94,0,0,0,44.71,37h.13a.93.93,0,0,0,.81-.4l4.42,1.83a2,2,0,0,0,1.22,2.32A2.18,2.18,0,0,0,54,39.65,2,2,0,0,0,52.89,37ZM24.8,17.28h0l3,7.07-3.05,1.7a2.36,2.36,0,0,0-.68-.49Zm5,13.4L29.29,32l-.81-.81Zm-2,0-2.65-2.51L29.56,30Zm2.64.27,1.57,3.74-2.24-2.1Zm1.16,4.36a1.75,1.75,0,0,0-.21.81v.27l-3.88,1.7,2-4.83Zm1.43-.83h-.27l-1.57-3.8,3.48,1.43-1.22,2.45A1,1,0,0,0,33.1,34.48ZM31.46,30l5.37-2.24h0l-1.91,3.67ZM37,29.05l-.41,3.13-1-.41Zm.88-1c.08,0,.08,0,.14-.07l5.64,7-6.26-2.58Zm-1.35-1L31.2,29.32l2.65-6.39h.35a1.38,1.38,0,0,0,.54-.13l2.1,3.47a1.9,1.9,0,0,0-.27.81Zm-3.41-4.42-2.65,6.39-1.83-4.34,4.15-2.24C33,22.53,33,22.59,33.16,22.66Zm-3.32,6.66-4.7-2v-.27a.81.81,0,0,0-.07-.4l3-1.64Zm-6.26-.61h.08L24.6,32,22,33.13l1.48-4.42Zm.75-.2c.08,0,.08-.07.14-.07L27.19,31l-1.91.75Zm3.4,3L29,32.78l-2,4.9-1.49-5.17Zm4,5.51a1.56,1.56,0,0,0,1.29.67h.27L35.07,42l-7.28-3.12Zm2.26.34a1.79,1.79,0,0,0,.67-1h1.49l-.62,4.77Zm.67-1.7a1.75,1.75,0,0,0-.54-.88l1.22-2.45,1.22.48-.35,2.78Zm2.65-2.51,5.77,2.38L37,35.65Zm1.29-5.58a.71.71,0,0,0,.14-.54V27l3-1.22L44,34.42Zm-.13-1.29-.21-.21L40,19.25,41.52,25Zm.88-7.76h0l-1.83,7.34h-.14l-2.1-3.47a1.74,1.74,0,0,0,.54-1.22c0-.21-.08-.35-.08-.54Zm-6.87,3.2L28.41,24l-2.92-7,.21-.21,6.74,3.94a1.12,1.12,0,0,0-.08.54A1.18,1.18,0,0,1,32.48,21.77Zm-8.43-4.55h0l-.76,8.3a1.43,1.43,0,0,0-1.08.68l-3.13-1.3ZM21.94,26.8v.48l-6,2.31,2.72-4.21Zm-6,3.68L22.15,28a1.47,1.47,0,0,0,.48.48l-1.64,5-.67.27-4.56-3.2C15.9,30.54,15.9,30.48,15.9,30.48Zm5.77,3.59,3.13-1.29,1.49,5.1-4.77-3.34ZM26,38.57l-5.91,1.29a.51.51,0,0,0-.27-.27l1.43-4.34Zm.2.75h0L25.61,41l-4.35-.54Zm.67.33a.73.73,0,0,0,.54-.21L33.22,42,26.35,41Zm9.33,2.11h0l.67-5.37,6.8-.13Zm8.63-7.07-2.45-9.25,2.18-.88A14.79,14.79,0,0,1,44.86,34.69Zm-.54-10.81-2.11.89-1.56-5.91A13.39,13.39,0,0,1,44.32,23.88ZM39,17.49c0,.07-.08.21-.08.27V18l-3.61,2.11-.27-.27,1.49-3.67A14.26,14.26,0,0,1,39,17.49Zm-8.5-2.65a15.22,15.22,0,0,1,5.45,1l-1.49,3.66h-.35a1.9,1.9,0,0,0-1.29.55l-6.74-3.94a.88.88,0,0,0,.08-.48v-.22A19.55,19.55,0,0,1,30.51,14.84Zm-7.14,1.84c0,.07.07.07.07.13l-5,7.76-1.7-.67A14.85,14.85,0,0,1,23.37,16.68ZM18,25.17l-2.51,3.94a13.77,13.77,0,0,1,1-4.55Zm-2.51,6,4.15,2.92-3.2,1.29A12.93,12.93,0,0,1,15.49,31.22Zm4.83,3.4.34.21-1.49,4.55c-.13,0-.27,0-.34.08a15.91,15.91,0,0,1-2-3.34ZM20.18,41l5.17.67-.88,2.18A13.09,13.09,0,0,1,20.18,41Zm4.89,3.12L26,41.7l8.76,1.08a1,1,0,0,0,.89.68l.21.54A14.42,14.42,0,0,1,25.07,44.07Zm11.56-.27-.21-.54a1,1,0,0,0,.27-.67v-.21l7.2-5.31A15,15,0,0,1,36.63,43.8Z"/><path class="cls-1" d="M24.74,6.47A2.1,2.1,0,0,1,25,7a1.58,1.58,0,0,1,.13.54l4.15-3a2.06,2.06,0,0,1,2.45,0l4.15,3.05C36,7.34,36,7.2,36,7s.21-.41.27-.54a3.28,3.28,0,0,1,1.29-1.22L33.38,2.12a4.51,4.51,0,0,0-5.77,0L23.4,5.25A3.1,3.1,0,0,1,24.74,6.47Z"/><path class="cls-1" d="M36.36,53.53a2.1,2.1,0,0,1-.27-.54,1.58,1.58,0,0,1-.13-.54l-4.16,3a2.06,2.06,0,0,1-2.45,0l-4.15-3c-.07.21-.07.35-.13.54s-.21.41-.27.54a3.24,3.24,0,0,1-1.3,1.22l4.22,3.13a4.51,4.51,0,0,0,5.77,0l4.21-3.13A2.71,2.71,0,0,1,36.36,53.53Z"/><path class="cls-1" d="M9.78,17.41l.61.21a1.13,1.13,0,0,1,.48.28l.76-5.1a2,2,0,0,1,1.69-1.7l5.1-.75c-.07-.14-.21-.35-.27-.48s-.13-.41-.21-.62A3.12,3.12,0,0,1,18,7.48l-5.18.75A4.54,4.54,0,0,0,8.77,12.3L8,17.47A4.12,4.12,0,0,1,9.78,17.41Z"/><path class="cls-1" d="M51.25,42.51l-.62-.21a1.23,1.23,0,0,1-.48-.27l-.75,5.1a2,2,0,0,1-1.7,1.7l-5.1.75a4.53,4.53,0,0,1,.27.48c.08.21.14.4.21.62A3,3,0,0,1,43,52.45l5.17-.75a4.55,4.55,0,0,0,4.07-4.08L53,42.45A3.08,3.08,0,0,1,51.25,42.51Z"/><path class="cls-1" d="M7.54,35.5a1.58,1.58,0,0,1,.54-.13L5,31.22a2.06,2.06,0,0,1,0-2.45l3.06-4.15c-.21-.08-.35-.08-.54-.14A5.69,5.69,0,0,1,7,24.21a3.19,3.19,0,0,1-1.21-1.29L2.65,27.13a4.51,4.51,0,0,0,0,5.77l3.13,4.21A3.93,3.93,0,0,1,7,35.82,1.49,1.49,0,0,1,7.54,35.5Z"/><path class="cls-1" d="M58.39,27.08l-3.13-4.21A3.89,3.89,0,0,1,54,24.17a2.1,2.1,0,0,1-.54.27,1.58,1.58,0,0,1-.54.13l3,4.15a2,2,0,0,1,0,2.45l-3,4.15c.21.08.35.08.54.14a4.49,4.49,0,0,1,.54.27A3.15,3.15,0,0,1,55.26,37l3.13-4.21A4.43,4.43,0,0,0,58.39,27.08Z"/><path class="cls-1" d="M11.67,47.14,10.92,42c-.14.08-.35.21-.48.27l-.62.22a3.12,3.12,0,0,1-1.77-.08l.75,5.17a4.54,4.54,0,0,0,4.07,4.08l5.18.75A4,4,0,0,1,18,50.68c.08-.22.14-.41.21-.62a1.23,1.23,0,0,1,.27-.48l-5.09-.75A1.9,1.9,0,0,1,11.67,47.14Z"/><path class="cls-1" d="M49.41,12.8l.75,5.1.49-.28.61-.21a3.15,3.15,0,0,1,1.78.08l-.76-5.17a4.54,4.54,0,0,0-4.07-4.08L43,7.49a4,4,0,0,1,.07,1.77c-.07.22-.13.41-.21.62a1,1,0,0,1-.27.48l5.1.75A2,2,0,0,1,49.41,12.8Z"/><g id="YENI"><path class="cls-1" d="M77.07,20.12H75.73l-.66-1.88H72.16l-.63,1.88H70.19L73,12.74h1.38Zm-2.34-2.87-1-2.95a3.07,3.07,0,0,1-.09-.46h0a2.07,2.07,0,0,1-.11.46l-1,2.95Z"/><path class="cls-1" d="M83.34,13.28l-4,5.8h4v1H77.58v-.56l4.06-5.77H77.89v-1h5.45Z"/><path class="cls-1" d="M84,15.91h5.61a2.4,2.4,0,0,0-.77-1.64,2.53,2.53,0,0,0-1.73-.6,3.56,3.56,0,0,0-2.09.62V13.16a4.32,4.32,0,0,1,2.22-.54,3.55,3.55,0,0,1,2.7,1,3.82,3.82,0,0,1,1,2.76,4.08,4.08,0,0,1-1,2.77,3.35,3.35,0,0,1-2.6,1.1,3,3,0,0,1-2.49-1.1A5.41,5.41,0,0,1,84,15.91Zm5.61,1H85.32a2.56,2.56,0,0,0,.57,1.66,1.91,1.91,0,0,0,1.49.61,2.13,2.13,0,0,0,1.55-.61A2.68,2.68,0,0,0,89.61,16.93Z"/><path class="cls-1" d="M98,20.12H96.54l-1.18-2a3.66,3.66,0,0,0-.31-.46,1.38,1.38,0,0,0-.32-.32,1.11,1.11,0,0,0-.34-.18,1.09,1.09,0,0,0-.42-.06h-.5v3H92.25V12.74h2.42a3.79,3.79,0,0,1,1,.12,2.24,2.24,0,0,1,.76.37,1.91,1.91,0,0,1,.51.62,2,2,0,0,1,.18.87,2.09,2.09,0,0,1-.12.72,1.72,1.72,0,0,1-.33.59,1.82,1.82,0,0,1-.51.44,2.2,2.2,0,0,1-.68.27h0a1.68,1.68,0,0,1,.35.26,2.57,2.57,0,0,1,.29.28,3.19,3.19,0,0,1,.27.33l.28.43Zm-4.48-6.37v2.39h1a1.46,1.46,0,0,0,.52-.09,1.07,1.07,0,0,0,.42-.26.86.86,0,0,0,.28-.41,1.42,1.42,0,0,0,.1-.52A1,1,0,0,0,95.5,14a1.45,1.45,0,0,0-1-.3H93.49Z"/><path class="cls-1" d="M98.82,20.12V12.74h2.35a2.81,2.81,0,0,1,1.7.46,1.48,1.48,0,0,1,.63,1.22,1.77,1.77,0,0,1-.36,1.1,1.89,1.89,0,0,1-1,.66v0a2,2,0,0,1,1.22.55,1.75,1.75,0,0,1,.45,1.24,1.88,1.88,0,0,1-.75,1.53,3,3,0,0,1-1.88.59H98.82ZM100,13.73v2.11h.8a1.6,1.6,0,0,0,1-.31,1,1,0,0,0,.36-.85c0-.63-.42-.95-1.27-.95Zm0,3.08v2.33h1a1.57,1.57,0,0,0,1-.31,1,1,0,0,0,.38-.87c0-.77-.53-1.15-1.6-1.15Z"/><path class="cls-1" d="M111.24,20.12h-1.33l-.67-1.88h-2.9l-.63,1.88h-1.34l2.77-7.38h1.38Zm-2.31-2.87-1-2.95a3.07,3.07,0,0,1-.09-.46h0a2.07,2.07,0,0,1-.11.46l-1,2.95Z"/><path class="cls-1" d="M116.61,12.75l-2.42,4.69v2.68H113V17.46l-2.36-4.72H112l1.44,3.16a2.9,2.9,0,0,1,.15.42h0a3.41,3.41,0,0,1,.16-.42l1.52-3.16h1.31Z"/><path class="cls-1" d="M122.45,19.82a4.48,4.48,0,0,1-2.08.44,3.37,3.37,0,0,1-2.57-1,3.67,3.67,0,0,1-1-2.66,3.88,3.88,0,0,1,1.08-2.86,3.75,3.75,0,0,1,2.75-1.1,4.79,4.79,0,0,1,1.78.3v1.22a3.14,3.14,0,0,0-1.64-.43,2.57,2.57,0,0,0-1.94.76,2.79,2.79,0,0,0-.74,2.05,2.69,2.69,0,0,0,.69,1.94,2.43,2.43,0,0,0,1.82.72,3.3,3.3,0,0,0,1.81-.5v1.13Z"/><path class="cls-1" d="M129.9,20.12h-1.33l-.67-1.88H125l-.63,1.88H123l2.77-7.38h1.38Zm-2.33-2.87-1-2.95a3.07,3.07,0,0,1-.09-.46h0a2.07,2.07,0,0,1-.11.46l-1,2.95Z"/><path class="cls-1" d="M137.17,20.12h-1.34l-3.52-5.43a2.46,2.46,0,0,1-.23-.42h0a6.64,6.64,0,0,1,0,1v4.84h-1.19V12.74h1.43l3.4,5.29a4.1,4.1,0,0,1,.27.45h0a7.58,7.58,0,0,1,0-1V12.74h1.17v7.38Z"/><path class="cls-1" d="M147.6,20.12h-1.43l-1.17-2a2.85,2.85,0,0,0-.32-.46,1.36,1.36,0,0,0-.31-.32,1.29,1.29,0,0,0-.35-.18,1.07,1.07,0,0,0-.42-.06h-.49v3h-1.22V12.74h2.42a3.71,3.71,0,0,1,1,.12,2.29,2.29,0,0,1,.77.37,1.91,1.91,0,0,1,.51.62,2,2,0,0,1,.18.87,2.36,2.36,0,0,1-.12.72,1.9,1.9,0,0,1-.33.59,2.16,2.16,0,0,1-.51.44,2.3,2.3,0,0,1-.68.27h0a1.68,1.68,0,0,1,.35.26l.28.28a3.19,3.19,0,0,1,.27.33c.09.13.18.28.29.43Zm-4.48-6.37v2.39h1a1.51,1.51,0,0,0,.53-.09,1.07,1.07,0,0,0,.42-.26.92.92,0,0,0,.27-.41,1.42,1.42,0,0,0,.11-.52,1.07,1.07,0,0,0-.33-.83,1.48,1.48,0,0,0-1-.3h-1Z"/><path class="cls-1" d="M152.59,20.12h-4.13V12.74h4v1h-2.75v2.09h2.54v1h-2.54v2.18h2.91Z"/><path class="cls-1" d="M153.57,19.84V18.57a1.33,1.33,0,0,0,.41.27,3.14,3.14,0,0,0,.49.21,3.46,3.46,0,0,0,.53.14,2.82,2.82,0,0,0,.48,0,2.12,2.12,0,0,0,1.14-.25.83.83,0,0,0,.38-.75.88.88,0,0,0-.12-.45,1.17,1.17,0,0,0-.35-.35,3.22,3.22,0,0,0-.52-.3l-.66-.3c-.26-.14-.49-.27-.71-.41a2.51,2.51,0,0,1-.56-.45,1.88,1.88,0,0,1-.37-.56,1.83,1.83,0,0,1-.14-.73,1.63,1.63,0,0,1,.24-.9,1.9,1.9,0,0,1,.62-.64,3.13,3.13,0,0,1,.87-.37,4.19,4.19,0,0,1,1-.12,4.34,4.34,0,0,1,1.69.25v1.21a2.73,2.73,0,0,0-1.61-.45,3.27,3.27,0,0,0-.54,0,1.36,1.36,0,0,0-.48.17,1,1,0,0,0-.35.3.82.82,0,0,0,0,.87,1.52,1.52,0,0,0,.3.33,5.06,5.06,0,0,0,.48.29l.66.3a7.33,7.33,0,0,1,.73.42,3.66,3.66,0,0,1,.6.49,1.8,1.8,0,0,1,.4.6,1.63,1.63,0,0,1,.15.74,1.86,1.86,0,0,1-.22.95,2,2,0,0,1-.62.63,2.72,2.72,0,0,1-.89.35,5,5,0,0,1-1.05.1l-.45,0c-.18,0-.36,0-.56-.07A3.29,3.29,0,0,1,154,20,1.76,1.76,0,0,1,153.57,19.84Z"/><path class="cls-1" d="M160.86,17.44v2.68h-1.21V12.74h2.24a3,3,0,0,1,2,.58,2.09,2.09,0,0,1,.7,1.67,2.26,2.26,0,0,1-.73,1.76,2.79,2.79,0,0,1-2,.68h-1Zm0-3.68v2.69h.8a1.77,1.77,0,0,0,1.2-.36,1.31,1.31,0,0,0,.41-1c0-.87-.51-1.31-1.52-1.31Z"/><path class="cls-1" d="M171.48,17.14q0,3.12-2.95,3.12c-1.88,0-2.81-1-2.81-3V12.75h1.22V17q0,2.16,1.68,2.16c1.09,0,1.63-.69,1.63-2.09V12.75h1.22v4.39Z"/><path class="cls-1" d="M173.21,20.12V12.74h2.34a2.81,2.81,0,0,1,1.7.46,1.46,1.46,0,0,1,.64,1.22,1.72,1.72,0,0,1-.37,1.1,1.9,1.9,0,0,1-1,.66v0a2,2,0,0,1,1.22.55,1.75,1.75,0,0,1,.45,1.24,1.86,1.86,0,0,1-.76,1.53,2.92,2.92,0,0,1-1.87.59h-2.38Zm1.22-6.39v2.11h.79a1.56,1.56,0,0,0,1-.31,1,1,0,0,0,.36-.85c0-.63-.42-.95-1.26-.95Zm0,3.08v2.33h1a1.58,1.58,0,0,0,1.06-.31,1.07,1.07,0,0,0,.37-.87c0-.77-.52-1.15-1.59-1.15Z"/><path class="cls-1" d="M183.66,20.12h-4.09V12.74h1.22v6.34h2.85v1Z"/><path class="cls-1" d="M185.33,12.06a.73.73,0,0,1-.45-.16.58.58,0,0,1-.18-.43.58.58,0,0,1,.18-.42.6.6,0,0,1,.45-.16.69.69,0,0,1,.45.16.56.56,0,0,1,.18.42.58.58,0,0,1-.18.43A.6.6,0,0,1,185.33,12.06Zm.65,8.06h-1.27V12.74H186Z"/><path class="cls-1" d="M193.37,20.12h-1.59l-2.57-3.37L189,16.5h0v3.64h-1.22V12.75H189v3.48h0a1.22,1.22,0,0,1,.18-.26l2.48-3.22h1.47l-2.9,3.54Z"/><path class="cls-1" d="M200.29,20.12H199l-.66-1.88h-2.9l-.63,1.88h-1.34l2.77-7.38h1.38ZM198,17.25l-1-2.95a3.07,3.07,0,0,1-.09-.46h0a3,3,0,0,1-.1.46l-1,2.95Z"/><path class="cls-1" d="M201,19.84V18.57a1.41,1.41,0,0,0,.4.27,3.26,3.26,0,0,0,.5.21,3.18,3.18,0,0,0,.53.14,2.82,2.82,0,0,0,.48,0A2.12,2.12,0,0,0,204,19a.85.85,0,0,0,.38-.75.8.8,0,0,0-.13-.45,1.13,1.13,0,0,0-.34-.35,2.94,2.94,0,0,0-.53-.3l-.66-.3-.71-.41a2.45,2.45,0,0,1-.55-.45,1.74,1.74,0,0,1-.38-.56,1.83,1.83,0,0,1-.13-.73,1.55,1.55,0,0,1,.24-.9,2,2,0,0,1,.61-.64,3.33,3.33,0,0,1,.88-.37,4.19,4.19,0,0,1,1-.12,4.25,4.25,0,0,1,1.68.25v1.21a2.71,2.71,0,0,0-1.61-.45,3.27,3.27,0,0,0-.54,0,1.44,1.44,0,0,0-.48.17,1.08,1.08,0,0,0-.34.3.82.82,0,0,0,0,.87,1.14,1.14,0,0,0,.3.33,4,4,0,0,0,.48.29l.66.3q.38.2.72.42a3,3,0,0,1,.6.49,1.83,1.83,0,0,1,.41.6,1.78,1.78,0,0,1,.15.74,1.86,1.86,0,0,1-.23.95,2,2,0,0,1-.61.63,2.81,2.81,0,0,1-.89.35,5.06,5.06,0,0,1-1.05.1l-.45,0c-.18,0-.37,0-.56-.07a3.05,3.05,0,0,1-.54-.14A1.58,1.58,0,0,1,201,19.84Z"/><path class="cls-1" d="M208.29,20.12H207V12.74h1.26Z"/><path class="cls-1" d="M76.7,33.65H75.28l-1.18-2a3.66,3.66,0,0,0-.31-.46,1.61,1.61,0,0,0-.32-.32,1.83,1.83,0,0,0-.34-.18,1.35,1.35,0,0,0-.43-.06h-.49v3H71V26.27h2.42a4.13,4.13,0,0,1,1,.12,2.31,2.31,0,0,1,.77.38,1.77,1.77,0,0,1,.51.61,2,2,0,0,1,.18.88,2.18,2.18,0,0,1-.12.72,1.77,1.77,0,0,1-.33.58,1.82,1.82,0,0,1-.51.44,2.3,2.3,0,0,1-.68.27v0a1.37,1.37,0,0,1,.35.25,2.57,2.57,0,0,1,.28.29,3.22,3.22,0,0,1,.28.33c.09.12.18.27.28.42Zm-4.48-6.37v2.39h1a1.46,1.46,0,0,0,.52-.09,1.07,1.07,0,0,0,.42-.26,1,1,0,0,0,.27-.4,1.43,1.43,0,0,0,.11-.53,1.08,1.08,0,0,0-.33-.83,1.45,1.45,0,0,0-1-.3H72.22Z"/><path class="cls-1" d="M77.08,29.44h5.61a2.4,2.4,0,0,0-.77-1.64,2.53,2.53,0,0,0-1.73-.6,3.56,3.56,0,0,0-2.09.62V26.69a4.36,4.36,0,0,1,2.23-.54,3.54,3.54,0,0,1,2.69,1,3.78,3.78,0,0,1,1,2.76,4,4,0,0,1-1,2.77,3.35,3.35,0,0,1-2.6,1.1,3,3,0,0,1-2.48-1.1A5.12,5.12,0,0,1,77.08,29.44Zm5.61,1H78.4A2.53,2.53,0,0,0,79,32.12a1.9,1.9,0,0,0,1.49.62A2.08,2.08,0,0,0,82,32.12,2.54,2.54,0,0,0,82.69,30.47Z"/><path class="cls-1" d="M88.39,33.77a3.78,3.78,0,0,1-1.45-.27,3.28,3.28,0,0,1-1.11-.76,3.68,3.68,0,0,1-.71-1.18,4.51,4.51,0,0,1-.25-1.51,5.08,5.08,0,0,1,.25-1.61,3.57,3.57,0,0,1,.73-1.24A3.05,3.05,0,0,1,87,26.42a4,4,0,0,1,1.5-.27,3.7,3.7,0,0,1,1.42.27,3.13,3.13,0,0,1,1.09.77,3.17,3.17,0,0,1,.71,1.17,4.26,4.26,0,0,1,.26,1.5,4.68,4.68,0,0,1-.36,1.91,3.36,3.36,0,0,1-1,1.33l2.14,1.55H90.85l-1.32-1a5.23,5.23,0,0,1-.54.12A4,4,0,0,1,88.39,33.77Zm.06-6.54a2,2,0,0,0-.92.2,1.81,1.81,0,0,0-.72.56,2.5,2.5,0,0,0-.47.87A3.83,3.83,0,0,0,86.18,30a3.88,3.88,0,0,0,.16,1.12,2.75,2.75,0,0,0,.45.85,2,2,0,0,0,.71.56,2,2,0,0,0,.92.2,2.44,2.44,0,0,0,1-.18,2,2,0,0,0,.72-.53,2.5,2.5,0,0,0,.45-.86A4,4,0,0,0,90.7,30a3.82,3.82,0,0,0-.15-1.17,2.62,2.62,0,0,0-.43-.87,1.73,1.73,0,0,0-.71-.55A2.56,2.56,0,0,0,88.45,27.23Z"/><path class="cls-1" d="M92.82,29.44h5.61a2.39,2.39,0,0,0-.76-1.64,2.55,2.55,0,0,0-1.73-.6,3.52,3.52,0,0,0-2.09.62V26.69a4.3,4.3,0,0,1,2.22-.54,3.53,3.53,0,0,1,2.69,1,3.78,3.78,0,0,1,1,2.76,4,4,0,0,1-1,2.77,3.34,3.34,0,0,1-2.6,1.1,3,3,0,0,1-2.48-1.1A5.12,5.12,0,0,1,92.82,29.44Zm5.61,1H94.15a2.48,2.48,0,0,0,.57,1.65,1.89,1.89,0,0,0,1.49.62,2.09,2.09,0,0,0,1.55-.62A2.59,2.59,0,0,0,98.43,30.47Z"/><path class="cls-1" d="M109,33.65H107.8V28.89c0-.39,0-.87.08-1.43h0a5.38,5.38,0,0,1-.2.69l-2.19,5.52h-.84l-2.21-5.47c-.06-.17-.12-.41-.2-.74h0c0,.3,0,.78,0,1.44v4.77h-1.13V26.29h1.73l1.94,4.91a8.69,8.69,0,0,1,.29.84h0a6.06,6.06,0,0,1,.31-.85l2-4.89h1.67v7.35Z"/><path class="cls-1" d="M110.49,33.37V32.11a1.82,1.82,0,0,0,.41.27,4.51,4.51,0,0,0,.49.21,3.41,3.41,0,0,0,.53.13,2.9,2.9,0,0,0,.48.05,2,2,0,0,0,1.14-.26.86.86,0,0,0,.38-.75.88.88,0,0,0-.12-.45,1.29,1.29,0,0,0-.35-.35,4.19,4.19,0,0,0-.52-.3l-.66-.3a7.82,7.82,0,0,1-.71-.41,2.51,2.51,0,0,1-.56-.45,2,2,0,0,1-.37-.55,1.84,1.84,0,0,1-.14-.74,1.63,1.63,0,0,1,.24-.9,1.78,1.78,0,0,1,.62-.63,2.87,2.87,0,0,1,.87-.38,4.78,4.78,0,0,1,1-.12,4.13,4.13,0,0,1,1.69.26v1.2a2.73,2.73,0,0,0-1.61-.45,3.27,3.27,0,0,0-.54,0,1.36,1.36,0,0,0-.48.17,1,1,0,0,0-.35.3.73.73,0,0,0-.14.45.71.71,0,0,0,.11.42,1.32,1.32,0,0,0,.3.33,2.78,2.78,0,0,0,.48.29l.66.3a7.33,7.33,0,0,1,.73.42,3.7,3.7,0,0,1,.6.5,1.71,1.71,0,0,1,.4.6,1.57,1.57,0,0,1,.15.73,1.83,1.83,0,0,1-.22.95,1.78,1.78,0,0,1-.62.63,2.72,2.72,0,0,1-.89.35,5,5,0,0,1-1,.1l-.45,0c-.18,0-.36,0-.56-.07a3.29,3.29,0,0,1-.54-.14A1.76,1.76,0,0,1,110.49,33.37Z"/><path class="cls-1" d="M122.63,33.65h-1.34l-.66-1.88h-2.91l-.63,1.88h-1.34l2.77-7.38h1.38Zm-2.33-2.87-1-3a3.07,3.07,0,0,1-.09-.46h0a2.07,2.07,0,0,1-.11.46l-1,3Z"/><path class="cls-1" d="M127.72,33.65h-4.09V26.27h1.22v6.35h2.86v1Z"/><path class="cls-1" d="M132.29,25.59a.77.77,0,0,1-.45-.16.58.58,0,0,1-.18-.42.56.56,0,0,1,.18-.42.6.6,0,0,1,.45-.17.65.65,0,0,1,.46.17.53.53,0,0,1,.18.42.58.58,0,0,1-.18.42A.66.66,0,0,1,132.29,25.59Zm.65,8.06h-1.26V26.27h1.26Z"/><path class="cls-1" d="M141,33.65h-1.34l-3.52-5.42a3,3,0,0,1-.23-.43h0a6.74,6.74,0,0,1,0,1v4.84h-1.19V26.27h1.43l3.4,5.29a4.1,4.1,0,0,1,.27.45h0a7.58,7.58,0,0,1,0-1V26.27H141v7.38Z"/><path class="cls-1" d="M148.41,33.65h-1.59l-2.57-3.36c-.09-.12-.15-.21-.18-.26h0v3.64h-1.21V26.29h1.21v3.47h0a1.22,1.22,0,0,1,.18-.26l2.48-3.21h1.47l-2.9,3.53Z"/><path class="cls-1" d="M149.87,25.59a.77.77,0,0,1-.45-.16.58.58,0,0,1-.18-.42.56.56,0,0,1,.18-.42.6.6,0,0,1,.45-.17.64.64,0,0,1,.45.17.53.53,0,0,1,.18.42.58.58,0,0,1-.18.42A.6.6,0,0,1,149.87,25.59Zm.66,8.06h-1.26V26.27h1.26Z"/><path class="cls-1" d="M152,33.37V32.11a2,2,0,0,0,.4.27,4.7,4.7,0,0,0,.5.21,3.41,3.41,0,0,0,.53.13,2.9,2.9,0,0,0,.48.05,2,2,0,0,0,1.14-.26.86.86,0,0,0,.38-.75.88.88,0,0,0-.12-.45A1.29,1.29,0,0,0,155,31a3.71,3.71,0,0,0-.53-.3l-.66-.3c-.25-.13-.48-.27-.7-.41a2.3,2.3,0,0,1-.56-.45,1.81,1.81,0,0,1-.38-.55,1.85,1.85,0,0,1-.13-.74,1.55,1.55,0,0,1,.24-.9,1.84,1.84,0,0,1,.61-.63,3,3,0,0,1,.88-.38,4.78,4.78,0,0,1,1-.12,4,4,0,0,1,1.68.26v1.2a2.71,2.71,0,0,0-1.61-.45,3.27,3.27,0,0,0-.54,0,1.44,1.44,0,0,0-.48.17,1.08,1.08,0,0,0-.34.3.73.73,0,0,0-.14.45.71.71,0,0,0,.11.42,1,1,0,0,0,.3.33,2.44,2.44,0,0,0,.48.29l.66.3a6.19,6.19,0,0,1,.72.42,3,3,0,0,1,.6.5,1.74,1.74,0,0,1,.41.6,1.7,1.7,0,0,1,.15.73,1.76,1.76,0,0,1-.84,1.58,2.81,2.81,0,0,1-.89.35,5.06,5.06,0,0,1-1.05.1l-.45,0c-.18,0-.36,0-.56-.07a3.05,3.05,0,0,1-.54-.14A1.58,1.58,0,0,1,152,33.37Zm3.49,1.56c0,.66-.5,1-1.49,1h-.42v-.57l.36,0c.45,0,.69-.14.69-.42s-.21-.38-.62-.38a.84.84,0,0,0-.19,0v-.94h.7v.49a1.07,1.07,0,0,1,.71.21A.7.7,0,0,1,155.5,34.93Z"/><path class="cls-1" d="M164.14,33.65H162.8l-.66-1.88h-2.91l-.64,1.88h-1.33L160,26.27h1.39Zm-2.33-2.87-1-3a3.07,3.07,0,0,1-.09-.46h0a3,3,0,0,1-.1.46l-1,3Z"/><path class="cls-1" d="M169.13,27.32h-2.75v2.21h2.54v1h-2.54v3.08h-1.22V26.27h4v1.05Z"/><path class="cls-1" d="M179.12,26.29l-2.65,7.38H175.1l-2.6-7.38h1.34l1.82,5.59a3.34,3.34,0,0,1,.14.62h0a4.48,4.48,0,0,1,.15-.64l1.87-5.59h1.29Z"/><path class="cls-1" d="M179.61,29.44h5.61a2.39,2.39,0,0,0-.76-1.64,2.53,2.53,0,0,0-1.73-.6,3.54,3.54,0,0,0-2.09.62V26.69a4.3,4.3,0,0,1,2.22-.54,3.51,3.51,0,0,1,2.69,1,3.78,3.78,0,0,1,1,2.76,4,4,0,0,1-1,2.77,3.32,3.32,0,0,1-2.6,1.1,3,3,0,0,1-2.48-1.1A5.18,5.18,0,0,1,179.61,29.44Zm5.61,1h-4.28a2.48,2.48,0,0,0,.57,1.65,1.89,1.89,0,0,0,1.49.62,2.09,2.09,0,0,0,1.55-.62A2.59,2.59,0,0,0,185.22,30.47Z"/><path class="cls-1" d="M77.26,47.19H75.92L72.4,41.76a3.42,3.42,0,0,1-.22-.42h0a7.07,7.07,0,0,1,0,1v4.84H71V39.8h1.42l3.4,5.3a2.78,2.78,0,0,1,.27.45h0a7.32,7.32,0,0,1-.05-1V39.8h1.18v7.39Z"/><path class="cls-1" d="M78.6,43h5.61a2.36,2.36,0,0,0-.77-1.64,2.48,2.48,0,0,0-1.73-.6,3.63,3.63,0,0,0-2.09.61V40.22a4.33,4.33,0,0,1,2.23-.54,3.54,3.54,0,0,1,2.69,1,3.83,3.83,0,0,1,1,2.77,4,4,0,0,1-1,2.76,3.32,3.32,0,0,1-2.6,1.1,3,3,0,0,1-2.48-1.1A5.07,5.07,0,0,1,78.6,43Zm5.61,1H79.92a2.51,2.51,0,0,0,.57,1.65,1.89,1.89,0,0,0,1.49.62,2.09,2.09,0,0,0,1.55-.62A2.52,2.52,0,0,0,84.21,44Z"/><path class="cls-1" d="M89.91,47.31A3.78,3.78,0,0,1,88.46,47a3.31,3.31,0,0,1-1.11-.77,3.63,3.63,0,0,1-.71-1.17,4.57,4.57,0,0,1-.25-1.52A5.08,5.08,0,0,1,86.64,42a3.44,3.44,0,0,1,.73-1.23A3,3,0,0,1,88.51,40a4,4,0,0,1,1.5-.27,3.7,3.7,0,0,1,1.42.27,3.23,3.23,0,0,1,1.09.77,3.31,3.31,0,0,1,.71,1.17,4.6,4.6,0,0,1,.26,1.51,4.71,4.71,0,0,1-.37,1.91,3.29,3.29,0,0,1-1,1.32l2.14,1.55H92.37l-1.32-1-.54.12A4,4,0,0,1,89.91,47.31ZM90,40.77a2.13,2.13,0,0,0-.92.19,2,2,0,0,0-.72.56,2.5,2.5,0,0,0-.47.87,4,4,0,0,0,0,2.24,2.81,2.81,0,0,0,.45.86A2.1,2.1,0,0,0,89,46a2,2,0,0,0,.92.2,2.35,2.35,0,0,0,.94-.18,1.94,1.94,0,0,0,.73-.53,2.45,2.45,0,0,0,.45-.85,4.15,4.15,0,0,0,.16-1.15,3.9,3.9,0,0,0-.15-1.17,2.62,2.62,0,0,0-.43-.87,1.73,1.73,0,0,0-.71-.54A2.52,2.52,0,0,0,90,40.77Z"/><path class="cls-1" d="M98.91,47.19H94.82V39.8H96v6.35H98.9v1Z"/><path class="cls-1" d="M100.6,39.13a.68.68,0,0,1-.45-.17.56.56,0,0,1-.18-.42.58.58,0,0,1,.18-.42.6.6,0,0,1,.45-.17.64.64,0,0,1,.45.17.54.54,0,0,1,.18.42.56.56,0,0,1-.18.42A.67.67,0,0,1,100.6,39.13Zm.64,8.06H100V39.8h1.26Z"/><path class="cls-1" d="M108.19,39.82l-2.42,4.69v2.68h-1.22V44.53l-2.36-4.73h1.4L105,43a3.52,3.52,0,0,1,.15.42h0c0-.1.09-.25.16-.42l1.52-3.16h1.31Z"/><path class="cls-1" d="M114.28,39.82l-2.42,4.69v2.68h-1.22V44.53l-2.36-4.73h1.4L111.12,43a3.52,3.52,0,0,1,.15.42h0c0-.1.09-.25.16-.42L113,39.8h1.31Z"/><path class="cls-1" d="M120.48,47.19h-1.34l-.66-1.88h-2.91l-.63,1.88H113.6l2.77-7.39h1.38Zm-2.33-2.88-1-2.94a3.27,3.27,0,0,1-.09-.47h0a2,2,0,0,1-.11.47l-1,2.94Z"/><path class="cls-1" d="M125.47,40.86h-2.12v6.33h-1.22V40.86H120v-1h5.46v1Z"/><path class="cls-1" d="M135.71,47.19h-1.34l-3.52-5.43a3.42,3.42,0,0,1-.22-.42h0a7.07,7.07,0,0,1,0,1v4.84h-1.19V39.8h1.43l3.4,5.3a2.78,2.78,0,0,1,.27.45h0a7.32,7.32,0,0,1,0-1V39.8h1.17v7.39Z"/><path class="cls-1" d="M143.59,47.19h-1.34l-.66-1.88h-2.9l-.64,1.88h-1.33l2.76-7.39h1.39Zm-2.33-2.88-1-2.94a3.27,3.27,0,0,1-.09-.47h0a2,2,0,0,1-.11.47l-1,2.94Z"/><path class="cls-1" d="M149.86,40.35l-4.05,5.8h4v1h-5.7v-.56l4.06-5.77h-3.75v-1h5.45v.53Z"/><path class="cls-1" d="M151.62,39.13a.68.68,0,0,1-.45-.17.56.56,0,0,1-.18-.42.58.58,0,0,1,.18-.42.6.6,0,0,1,.45-.17.64.64,0,0,1,.45.17.54.54,0,0,1,.18.42.56.56,0,0,1-.18.42A.6.6,0,0,1,151.62,39.13Zm.64,8.06H151V39.8h1.26Z"/><path class="cls-1" d="M159.78,47.19h-1.43l-1.17-2a4.78,4.78,0,0,0-.32-.47,1.51,1.51,0,0,0-.31-.31,1.7,1.7,0,0,0-.35-.19,1.29,1.29,0,0,0-.42-.06h-.49v3h-1.22V39.8h2.42a4.2,4.2,0,0,1,1,.12,2.31,2.31,0,0,1,.77.38,1.91,1.91,0,0,1,.51.62,2,2,0,0,1,.18.87,2.47,2.47,0,0,1-.12.72,2,2,0,0,1-.33.59,2.37,2.37,0,0,1-.51.43,2.3,2.3,0,0,1-.68.27v0a1.37,1.37,0,0,1,.35.25,2.57,2.57,0,0,1,.28.29,3.19,3.19,0,0,1,.27.33c.09.12.18.27.29.42Zm-4.48-6.38V43.2h1a1.51,1.51,0,0,0,.53-.09,1.12,1.12,0,0,0,.42-.25,1,1,0,0,0,.27-.41,1.43,1.43,0,0,0,.11-.53,1,1,0,0,0-.33-.82,1.43,1.43,0,0,0-1-.3h-1Z"/><path class="cls-1" d="M164.73,47.19h-4.09V39.8h1.22v6.35h2.85v1Z"/><path class="cls-1" d="M166.4,39.13A.68.68,0,0,1,166,39a.56.56,0,0,1-.18-.42.58.58,0,0,1,.18-.42.6.6,0,0,1,.45-.17.64.64,0,0,1,.45.17.54.54,0,0,1,.18.42.56.56,0,0,1-.18.42A.6.6,0,0,1,166.4,39.13Zm.64,8.06h-1.26V39.8H167Z"/><path class="cls-1" d="M174,39.82l-2.42,4.69v2.68h-1.22V44.53L168,39.8h1.4L170.85,43s.07.18.15.42h0a3.35,3.35,0,0,1,.17-.42l1.52-3.16H174Z"/><path class="cls-1" d="M175.55,39.13a.72.72,0,0,1-.45-.17.56.56,0,0,1-.18-.42.58.58,0,0,1,.18-.42.6.6,0,0,1,.45-.17.65.65,0,0,1,.46.17.54.54,0,0,1,.18.42A.56.56,0,0,1,176,39,.67.67,0,0,1,175.55,39.13Zm.65,8.06h-1.26V39.8h1.26Z"/></g></svg>