<?xml version="1.0" encoding="UTF-8"?>
<svg width="20px" height="20px" viewBox="0 0 20 20" version="1.1" xmlns="http://www.w3.org/2000/svg" xmlns:xlink="http://www.w3.org/1999/xlink">
    <!-- Generator: Sketch 49.3 (51167) - http://www.bohemiancoding.com/sketch -->
    <title>Group 3</title>
    <desc>Created with Sketch.</desc>
    <defs></defs>
    <g id="Page-1" stroke="none" stroke-width="1" fill="none" fill-rule="evenodd">
        <g id="00.Azerpoct" transform="translate(-280.000000, -1502.000000)" fill="#B3C0CE" fill-rule="nonzero">
            <g id="Group-3" transform="translate(280.000000, 1502.000000)">
                <path d="M10,0 C4.5,0 0,4.5 0,10 C0,15.5 4.5,20 10,20 C15.5,20 20,15.5 20,10 C20,4.5 15.5,0 10,0 Z M10,18 C5.6,18 2,14.4 2,10 C2,5.6 5.6,2 10,2 C14.4,2 18,5.6 18,10 C18,14.4 14.4,18 10,18 Z" id="Combined-Shape"></path>
                <path d="M12.375,5 L7.5,5 L7.5,11.6666667 L6,11.6666667 L6,13.3333333 L7.5,13.3333333 L7.5,15 L9,15 L9,13.3333333 L12,13.3333333 L12,11.6666667 L9,11.6666667 L9,10.8333333 L12.375,10.8333333 C13.82235,10.8333333 15,9.52483333 15,7.91666667 C15,6.3085 13.82235,5 12.375,5 Z M12.375,9.16666667 L9,9.16666667 L9,6.66666667 L12.375,6.66666667 C12.9954,6.66666667 13.5,7.22733333 13.5,7.91666667 C13.5,8.606 12.9954,9.16666667 12.375,9.16666667 Z" id="Shape"></path>
            </g>
        </g>
    </g>
</svg>