<?xml version="1.0" encoding="UTF-8"?>
<svg width="20px" height="20px" viewBox="0 0 20 20" version="1.1" xmlns="http://www.w3.org/2000/svg" xmlns:xlink="http://www.w3.org/1999/xlink">
    <!-- Generator: Sketch 49.3 (51167) - http://www.bohemiancoding.com/sketch -->
    <title>Group 13</title>
    <desc>Created with Sketch.</desc>
    <defs></defs>
    <g id="Page-1" stroke="none" stroke-width="1" fill="none" fill-rule="evenodd">
        <g id="00.Azerpoct" transform="translate(-280.000000, -1382.000000)" fill="#B3C0CE" fill-rule="nonzero">
            <g id="Group-13" transform="translate(280.000000, 1382.000000)">
                <path d="M10,0 C4.5,0 0,4.5 0,10 C0,15.5 4.5,20 10,20 C15.5,20 20,15.5 20,10 C20,4.5 15.5,0 10,0 Z M10,18 C5.6,18 2,14.4 2,10 C2,5.6 5.6,2 10,2 C14.4,2 18,5.6 18,10 C18,14.4 14.4,18 10,18 Z M10,9 C9.4,9 9,8.6 9,8 C9,7.4 9.4,7 10,7 C10.4,7 10.7,7.2 10.9,7.5 C11.2,8 11.8,8.1 12.3,7.9 C12.8,7.6 12.9,7 12.7,6.5 C12.3,5.9 11.8,5.4 11.1,5.2 L11.1,4.5 C11.1,3.9 10.7,3.5 10.1,3.5 C9.5,3.5 9.1,3.9 9.1,4.5 L9.1,5.2 C7.8,5.6 7,6.7 7,8 C7,9.7 8.3,11 10,11 C10.6,11 11,11.4 11,12 C11,12.6 10.6,13 10,13 C9.6,13 9.3,12.8 9.1,12.5 C8.8,12 8.2,11.9 7.7,12.1 C7.2,12.4 7.1,13 7.3,13.5 C7.7,14.1 8.2,14.6 8.9,14.8 L8.9,15.5 C8.9,16.1 9.3,16.5 9.9,16.5 C10.5,16.5 10.9,16.1 10.9,15.5 L10.9,14.8 C12.1,14.4 12.9,13.3 12.9,12 C13,10.3 11.7,9 10,9 Z" id="Combined-Shape"></path>
            </g>
        </g>
    </g>
</svg>