<?xml version="1.0" encoding="UTF-8"?>
<svg width="20px" height="20px" viewBox="0 0 20 20" version="1.1" xmlns="http://www.w3.org/2000/svg" xmlns:xlink="http://www.w3.org/1999/xlink">
    <!-- Generator: Sketch 49.3 (51167) - http://www.bohemiancoding.com/sketch -->
    <title>Shape</title>
    <desc>Created with Sketch.</desc>
    <defs></defs>
    <g id="Page-1" stroke="none" stroke-width="1" fill="none" fill-rule="evenodd">
        <g id="00.Azerpoct" transform="translate(-1360.000000, -1570.000000)" fill="#0066AA" fill-rule="nonzero">
            <path d="M1379,1570 L1363,1570 C1361.5,1570 1360.1,1571.2 1360,1572.9 C1360,1573.2 1360,1586.7 1360,1587 C1360,1588.7 1361.3,1590 1363,1590 L1377,1590 C1378.7,1590 1380,1588.7 1380,1587 C1380,1581.5 1380,1576.6 1380,1571 C1380,1570.4 1379.6,1570 1379,1570 Z M1363,1572 L1378,1572 L1378,1574 L1363.1,1574 C1362.6,1574 1362,1573.6 1362,1573 C1362,1572.4 1362.5,1572 1363,1572 Z M1377,1588 L1363,1588 C1362.4,1588 1362,1587.6 1362,1587 L1362,1575.8 C1362.3,1575.9 1362.7,1576 1363,1576 C1364.7,1576 1376.3,1576 1378,1576 L1378,1579 L1376,1579 C1374.3,1579 1373,1580.3 1373,1582 C1373,1583.7 1374.3,1585 1376,1585 L1378,1585 L1378,1587 C1378,1587.6 1377.6,1588 1377,1588 Z M1378,1583 L1376,1583 C1375.4,1583 1375,1582.6 1375,1582 C1375,1581.4 1375.4,1581 1376,1581 L1378,1581 L1378,1583 Z" id="Shape"></path>
        </g>
    </g>
</svg>