<?xml version="1.0" encoding="UTF-8"?>
<svg width="20px" height="20px" viewBox="0 0 20 20" version="1.1" xmlns="http://www.w3.org/2000/svg" xmlns:xlink="http://www.w3.org/1999/xlink">
    <!-- Generator: Sketch 49.3 (51167) - http://www.bohemiancoding.com/sketch -->
    <title>Combined Shape</title>
    <desc>Created with Sketch.</desc>
    <defs></defs>
    <g id="Page-1" stroke="none" stroke-width="1" fill="none" fill-rule="evenodd">
        <g id="00.Azerpoct" transform="translate(-1130.000000, -915.000000)" fill="#FFFFFF" fill-rule="nonzero">
            <g id="Group-22" transform="translate(1110.000000, 895.000000)">
                <path d="M37.1,22.9213483 C39,24.8189763 40,27.3158552 40,30.0124844 C40,32.7091136 39,35.2059925 37.1,37.1036205 L35.7,35.7053683 C37.2,34.1073658 38,32.1098627 38,30.0124844 C38,27.9151061 37.2,25.8177278 35.6,24.3196005 C32.5,21.2234707 27.4,21.2234707 24.3,24.3196005 C22.8,25.917603 22,27.9151061 22,30.0124844 C22,32.1098627 22.8,34.1073658 24.3,35.7053683 L22.9,37.1036205 C21,35.2059925 20,32.7091136 20,30.0124844 C20,27.3158552 21,24.8189763 22.9,22.9213483 C26.8,19.0262172 33.2,19.0262172 37.1,22.9213483 Z M34.2,25.8177278 C35.4,26.9163546 36,28.4144819 36,30.1123596 C36,31.710362 35.3,33.2084894 34.2,34.3071161 L32.8,32.9088639 C34.4,31.3108614 34.4,28.8139825 32.8,27.21598 C32.1,26.4169788 31.1,26.0174782 30,26.0174782 C28.9,26.0174782 27.9,26.4169788 27.2,27.1161049 C25.6,28.7141074 25.6,31.2109863 27.2,32.8089888 L25.8,34.2072409 C24.6,33.1086142 24,31.6104869 24,30.0124844 C24,28.4144819 24.6,26.9163546 25.8,25.8177278 C26.9,24.619226 28.4,24.019975 30,24.019975 C31.6,24.019975 33.1,24.619226 34.2,25.8177278 Z M31,31.710362 L31,38.0024969 L33,38.0024969 L33,40 L27,40 L27,38.0024969 L29,38.0024969 L29,31.710362 C28.4,31.4107366 28,30.7116105 28,30.0124844 C28,28.9138577 28.9,28.0149813 30,28.0149813 C31.1,28.0149813 32,28.9138577 32,30.0124844 C32,30.7116105 31.6,31.4107366 31,31.710362 Z" id="Combined-Shape"></path>
            </g>
        </g>
    </g>
</svg>