<?xml version="1.0" encoding="UTF-8"?>
<svg width="20px" height="20px" viewBox="0 0 20 20" version="1.1" xmlns="http://www.w3.org/2000/svg" xmlns:xlink="http://www.w3.org/1999/xlink">
    <!-- Generator: Sketch 49.3 (51167) - http://www.bohemiancoding.com/sketch -->
    <title>Shape</title>
    <desc>Created with Sketch.</desc>
    <defs></defs>
    <g id="Page-1" stroke="none" stroke-width="1" fill="none" fill-rule="evenodd">
        <g id="00.Azerpoct" transform="translate(-1490.000000, -915.000000)" fill="#FFFFFF" fill-rule="nonzero">
            <g id="Group-23" transform="translate(1470.000000, 895.000000)">
                <path d="M39,34 L26,34 C25.4,34 25,33.6 25,33 C25,32.4 25.4,32 26,32 L36,32 C36.4,32 36.8,31.8 36.9,31.4 L39.9,24.4 C40.2,23.7 39.7,23 39,23 L25.8,23 L25.4,20.9 C25.3,20.4 24.9,20 24.4,20 L21,20 C20.4,20 20,20.5 20,21 C20,21.5 20.4,22 21,22 L23.6,22 L24.9,30.2 C23.8,30.6 23,31.7 23,33 C23,34.1 23.6,35 24.4,35.5 C24.2,35.9 24,36.4 24,37 C24,38.7 25.3,40 27,40 C28.7,40 30,38.7 30,37 C30,36.6 29.9,36.3 29.8,36 L32.2,36 C32.1,36.3 32,36.6 32,37 C32,38.7 33.3,40 35,40 C36.7,40 38,38.7 38,37 C38,36.6 37.9,36.3 37.8,36 L39,36 C39.6,36 40,35.6 40,35 C40,34.4 39.6,34 39,34 Z M37.5,25 L35.4,30 L26.9,30 L26.1,25 L37.5,25 Z M28,37 C28,37.6 27.6,38 27,38 C26.4,38 26,37.6 26,37 C26,36.4 26.4,36 27,36 C27.6,36 28,36.4 28,37 Z M36,37 C36,37.6 35.6,38 35,38 C34.4,38 34,37.6 34,37 C34,36.4 34.4,36 35,36 C35.6,36 36,36.4 36,37 Z" id="Shape"></path>
            </g>
        </g>
    </g>
</svg>