<?xml version="1.0" encoding="UTF-8"?>
<svg width="18px" height="15px" viewBox="0 0 18 15" version="1.1" xmlns="http://www.w3.org/2000/svg" xmlns:xlink="http://www.w3.org/1999/xlink">
    <!-- Generator: Sketch 49.3 (51167) - http://www.bohemiancoding.com/sketch -->
    <title>Shape</title>
    <desc>Created with Sketch.</desc>
    <defs></defs>
    <g id="Page-1" stroke="none" stroke-width="1" fill="none" fill-rule="evenodd">
        <g id="00.Azerpoct" transform="translate(-411.000000, -918.000000)" fill="#FFFFFF" fill-rule="nonzero">
            <path d="M427.2,918 L412.8,918 C411.807874,918 411,918.841535 411,919.875 L411,931.125 C411,932.158465 411.807874,933 412.8,933 L427.2,933 C428.192126,933 429,932.158465 429,931.125 L429,919.875 C429,918.841535 428.192126,918 427.2,918 Z M412.8,921.200049 L416.927953,925.5 L412.8,929.799951 L412.8,921.200049 Z M420,926.049951 L414.072047,919.875 L425.924409,919.875 L420,926.049951 Z M418.2,926.825049 L419.362205,928.035679 C419.53937,928.220226 419.769685,928.308809 420,928.308809 C420.230315,928.308809 420.46063,928.216535 420.637795,928.035679 L421.8,926.825049 L425.927953,931.125 L414.072047,931.125 L418.2,926.825049 Z M423.072047,925.5 L427.2,921.200049 L427.2,929.799951 L423.072047,925.5 Z" id="Shape"></path>
        </g>
    </g>
</svg>